<?xml version="1.0" standalone="no"?>
<!DOCTYPE svg PUBLIC "-//W3C//DTD SVG 20010904//EN"
 "http://www.w3.org/TR/2001/REC-SVG-20010904/DTD/svg10.dtd">
<svg version="1.0" xmlns="http://www.w3.org/2000/svg"
 width="1500.000000pt" height="500.000000pt" viewBox="0 0 1500.000000 500.000000"
 preserveAspectRatio="xMidYMid meet">

<g transform="translate(0.000000,500.000000) scale(0.100000,-0.100000)"
fill="#000000" stroke="none">
<path d="M2975 4652 c-264 -153 -735 -426 -1048 -606 l-567 -328 2 -1220 3
-1221 540 -311 c297 -171 768 -443 1046 -604 279 -161 511 -292 517 -292 6 0
368 206 804 458 436 252 909 524 1051 606 l257 148 0 1217 0 1217 -1050 607
c-578 334 -1056 607 -1063 607 -7 -1 -228 -126 -492 -278z m1318 -406 c452
-261 884 -509 959 -552 l137 -79 0 -1115 0 -1115 -137 -79 c-75 -43 -507 -292
-960 -553 l-823 -474 -492 283 c-271 155 -703 405 -962 555 l-470 272 0 1111
0 1111 415 241 c228 132 600 346 825 476 226 130 471 271 545 314 74 42 136
78 138 78 2 0 373 -213 825 -474z"/>
<path d="M2414 3471 c-57 -35 -64 -54 -64 -178 l0 -113 1120 0 1120 0 0 108
c0 90 -3 112 -20 140 -40 65 14 62 -1107 62 -984 0 -1019 -1 -1049 -19z"/>
<path d="M2350 2307 c0 -588 3 -776 12 -785 17 -17 2199 -17 2216 0 9 9 12
197 12 785 l0 773 -1120 0 -1120 0 0 -773z m845 262 l160 -161 -159 -154
c-105 -101 -166 -154 -181 -154 -25 0 -45 18 -45 41 0 9 57 73 128 142 l127
126 -122 124 c-90 91 -123 130 -123 148 0 28 17 49 40 49 8 0 87 -72 175 -161z
m793 -395 c12 -8 22 -24 22 -34 0 -10 -10 -26 -22 -34 -19 -14 -67 -16 -320
-16 -285 0 -299 1 -318 20 -11 11 -20 25 -20 30 0 6 9 19 20 30 19 19 33 20
318 20 253 0 301 -2 320 -16z"/>
<path d="M7580 2520 l0 -400 50 0 50 0 0 204 c0 193 1 205 22 231 47 60 138
73 190 26 l33 -29 3 -216 3 -216 45 0 44 0 0 218 c0 206 -1 220 -22 262 -50
98 -184 119 -285 43 l-33 -24 0 150 0 151 -50 0 -50 0 0 -400z"/>
<path d="M10630 2775 c0 -80 -2 -145 -5 -145 -2 0 -20 11 -40 24 -70 48 -171
44 -242 -10 -17 -13 -44 -50 -60 -81 -25 -53 -28 -67 -27 -163 0 -121 18 -174
78 -232 73 -71 189 -76 266 -12 l30 26 0 -31 c0 -30 1 -31 45 -31 l45 0 0 400
0 400 -45 0 -45 0 0 -145z m-70 -180 c62 -32 70 -55 70 -195 0 -114 -2 -130
-21 -154 -67 -85 -190 -72 -240 26 -31 60 -32 183 -1 250 34 78 119 111 192
73z"/>
<path d="M12538 2868 c-31 -24 -27 -74 7 -90 41 -18 75 3 75 46 0 49 -45 72
-82 44z"/>
<path d="M6090 2495 l0 -375 51 0 52 0 -7 298 c-4 169 -3 291 2 282 5 -8 60
-142 123 -297 l114 -283 36 0 c20 0 39 6 42 13 79 194 238 581 241 584 1 2 1
-132 -2 -297 l-5 -300 52 0 51 0 0 375 0 376 -66 -3 -66 -3 -123 -305 -123
-304 -14 34 c-8 19 -63 158 -124 307 l-109 273 -62 0 -63 0 0 -375z"/>
<path d="M11225 2508 c-76 -200 -140 -369 -143 -375 -3 -9 10 -13 45 -13 l49
0 35 98 34 97 160 3 160 2 35 -97 35 -98 48 -3 c26 -2 47 1 47 6 0 6 -63 173
-140 373 -77 199 -140 364 -140 366 0 2 -20 3 -43 3 l-44 0 -138 -362z m249
62 c31 -85 56 -158 56 -162 0 -5 -56 -8 -125 -8 -69 0 -125 2 -125 4 0 3 100
280 115 319 4 10 11 15 15 10 4 -4 32 -78 64 -163z"/>
<path d="M11850 2750 l0 -70 -50 0 -50 0 0 -35 0 -35 50 0 50 0 0 -201 c0
-162 3 -207 16 -234 24 -52 94 -77 162 -59 18 5 22 13 22 43 0 36 0 37 -39 33
-66 -6 -71 10 -71 230 l0 188 55 0 55 0 0 35 0 35 -55 0 -55 0 0 70 0 70 -45
0 -45 0 0 -70z"/>
<path d="M12200 2750 l0 -70 -50 0 -50 0 0 -35 0 -35 50 0 50 0 0 -201 c0
-162 3 -207 16 -234 24 -52 94 -77 162 -59 18 5 22 13 22 43 0 36 0 37 -39 33
-66 -6 -71 10 -71 230 l0 188 55 0 55 0 0 35 0 35 -55 0 -55 0 0 70 0 70 -45
0 -45 0 0 -70z"/>
<path d="M7155 2681 c-65 -17 -117 -56 -144 -108 -18 -36 -13 -43 34 -43 38 0
47 4 56 23 16 36 61 57 119 57 44 0 56 -4 81 -29 24 -24 29 -38 29 -75 l0 -46
-65 0 c-128 0 -206 -31 -253 -100 -31 -45 -28 -130 6 -177 57 -80 190 -93 285
-29 l36 25 3 -27 c3 -25 7 -27 56 -30 43 -2 52 0 45 10 -4 7 -10 108 -13 223
-5 199 -6 212 -29 248 -13 21 -41 47 -64 58 -44 23 -134 33 -182 20z m175
-354 c0 -72 -15 -93 -82 -122 -47 -19 -72 -19 -113 0 -52 25 -71 88 -39 134
25 35 71 50 157 51 l77 0 0 -63z"/>
<path d="M8349 2676 c-20 -7 -50 -23 -68 -35 l-31 -22 0 30 c0 30 -1 31 -45
31 l-45 0 0 -280 0 -280 50 0 50 0 0 213 c0 209 1 214 23 234 48 44 115 56
167 30 52 -26 60 -63 60 -279 l0 -198 45 0 45 0 0 190 c0 214 7 246 62 280 61
37 158 18 178 -36 6 -14 10 -117 10 -230 l0 -204 51 0 51 0 -4 218 c-5 230 -9
256 -55 304 -31 33 -107 53 -167 44 -46 -7 -136 -58 -136 -76 0 -7 -15 4 -33
23 -49 53 -133 70 -208 43z"/>
<path d="M9242 2676 c-102 -33 -162 -122 -170 -250 -12 -190 87 -311 253 -311
158 1 247 105 247 289 0 82 -16 136 -55 188 -62 81 -176 116 -275 84z m159
-89 c19 -12 44 -42 57 -67 20 -39 23 -56 20 -131 -4 -97 -23 -140 -78 -176
-39 -27 -107 -30 -150 -8 -16 8 -42 36 -57 62 -24 42 -28 59 -28 128 0 137 56
214 156 215 31 0 57 -7 80 -23z"/>
<path d="M12925 2681 c-65 -17 -117 -56 -144 -108 -18 -36 -13 -43 34 -43 38
0 47 4 56 23 16 36 61 57 119 57 44 0 56 -4 81 -29 24 -24 29 -38 29 -75 l0
-46 -65 0 c-128 0 -206 -31 -253 -100 -31 -45 -28 -130 6 -177 57 -80 190 -93
285 -29 l36 25 3 -27 c3 -25 7 -27 56 -30 43 -2 52 0 45 10 -4 7 -10 108 -13
223 -5 199 -6 212 -29 248 -13 21 -41 47 -64 58 -44 23 -134 33 -182 20z m175
-354 c0 -72 -15 -93 -82 -122 -47 -19 -72 -19 -113 0 -52 25 -71 88 -39 134
25 35 71 50 157 51 l77 0 0 -63z"/>
<path d="M9690 2483 c1 -255 9 -292 84 -347 43 -33 156 -30 219 6 l47 27 0
-25 c0 -22 4 -24 45 -24 l45 0 0 280 0 280 -45 0 -45 0 0 -204 c0 -193 -1
-205 -22 -231 -27 -34 -75 -55 -128 -55 -33 0 -48 6 -71 29 -32 33 -31 23 -35
261 -1 85 -3 165 -3 178 -1 19 -6 22 -46 22 l-45 0 0 -197z"/>
<path d="M12520 2399 l0 -280 48 3 47 3 0 278 0 277 -47 0 -48 0 0 -281z"/>
</g>
</svg>
